<?xml version="1.0" encoding="UTF-8" standalone="no"?>
<!DOCTYPE svg PUBLIC "-//W3C//DTD SVG 1.1//EN" "http://www.w3.org/Graphics/SVG/1.1/DTD/svg11.dtd">
<svg version="1.1" xmlns="http://www.w3.org/2000/svg" xmlns:xlink="http://www.w3.org/1999/xlink" preserveAspectRatio="xMidYMid meet" viewBox="0 0 140 140" width="140" height="140"><defs><path d="M-15 -18.73L159.31 -18.73L159.31 155.57L-15 155.57L-15 -18.73Z" id="b2uNy4w3AL"></path><path d="M106.63 41.53L225.56 173.65L106.63 173.65L106.63 41.53Z" id="b2hka9gtl"></path><path d="M162.53 254.9L11.84 116.87L162.53 116.87L162.53 254.9Z" id="aeU4uxgH6"></path><path d="M117.51 71.84C117.51 97.93 96.66 119.12 70.98 119.12C45.29 119.12 24.44 97.93 24.44 71.84C24.44 45.74 45.29 24.55 70.98 24.55C96.66 24.55 117.51 45.74 117.51 71.84Z" id="bcSK3FPlI"></path><path d="M125.73 90C128.64 90 131 92.36 131 95.27C131 100.02 131 108.99 131 113.73C131 116.64 128.64 119 125.73 119C102.78 119 39.21 119 16.27 119C13.36 119 11 116.64 11 113.73C11 108.99 11 100.02 11 95.27C11 92.36 13.36 90 16.27 90C39.21 90 102.78 90 125.73 90Z" id="gB7OmPyQa"></path><path d="M134.44 98.58C136.96 98.58 139 100.62 139 103.13C139 104.59 139 104.4 139 105.86C139 108.37 136.96 110.41 134.44 110.41C108.35 110.41 34.65 110.41 8.56 110.41C6.04 110.41 4 108.37 4 105.86C4 104.4 4 104.59 4 103.13C4 100.62 6.04 98.58 8.56 98.58C34.65 98.58 108.35 98.58 134.44 98.58Z" id="bZUw24dXd"></path><path d="M11 97L131 97L131 98.58L11 98.58L11 97Z" id="d91rpNMuUD"></path><path d="M11 110.42L131 110.42L131 112L11 112L11 110.42Z" id="a1I9HYioWz"></path><path d="M19 98.58L21 98.58L21 110.42L19 110.42L19 98.58Z" id="g27a1tLT0s"></path><path d="M34 98.57L36 98.57L36 110.41L34 110.41L34 98.57Z" id="jBzfiqJOf"></path><path d="M49 98.58L51 98.58L51 110.42L49 110.42L49 98.58Z" id="a1LVFiUju9"></path><path d="M64 98.57L66 98.57L66 110.41L64 110.41L64 98.57Z" id="d2aAD22fl"></path><path d="M79 98.58L81 98.58L81 110.42L79 110.42L79 98.58Z" id="b2M1QLLbAN"></path><path d="M93 98.57L95 98.57L95 110.41L93 110.41L93 98.57Z" id="bBx8rVRSI"></path><path d="M108 98.58L110 98.58L110 110.42L108 110.42L108 98.58Z" id="b6qjEIgZ2g"></path><path d="M123 98.57L125 98.57L125 110.41L123 110.41L123 98.57Z" id="a5g8tshNv0"></path><path d="M107.37 97L227.37 97L227.37 98.58L107.37 98.58L107.37 97Z" id="a2ywNIlem"></path><path d="M94.75 110.42L214.75 110.42L214.75 112L94.75 112L94.75 110.42Z" id="f3mgLLVdhC"></path></defs><g><g><g><use xlink:href="#b2uNy4w3AL" opacity="1" fill="#ffffff" fill-opacity="1"></use><g><use xlink:href="#b2uNy4w3AL" opacity="1" fill-opacity="0" stroke="#e28cd6" stroke-width="0" stroke-opacity="1"></use></g></g><g><use xlink:href="#b2hka9gtl" opacity="1" fill="#efcded" fill-opacity="1"></use></g><g><use xlink:href="#aeU4uxgH6" opacity="1" fill="#efcded" fill-opacity="1"></use></g><g><use xlink:href="#bcSK3FPlI" opacity="1" fill="#eaa43e" fill-opacity="1"></use></g><g><use xlink:href="#gB7OmPyQa" opacity="1" fill="#000000" fill-opacity="1"></use><g><use xlink:href="#gB7OmPyQa" opacity="1" fill-opacity="0" stroke="#000000" stroke-width="0" stroke-opacity="1"></use></g></g><g><use xlink:href="#bZUw24dXd" opacity="1" fill="#000000" fill-opacity="1"></use><g><use xlink:href="#bZUw24dXd" opacity="1" fill-opacity="0" stroke="#ffffff" stroke-width="0" stroke-opacity="1"></use></g></g><g><use xlink:href="#d91rpNMuUD" opacity="1" fill="#ffffff" fill-opacity="1"></use><g><use xlink:href="#d91rpNMuUD" opacity="1" fill-opacity="0" stroke="#ffffff" stroke-width="0" stroke-opacity="1"></use></g></g><g><use xlink:href="#a1I9HYioWz" opacity="1" fill="#ffffff" fill-opacity="1"></use><g><use xlink:href="#a1I9HYioWz" opacity="1" fill-opacity="0" stroke="#ffffff" stroke-width="0" stroke-opacity="1"></use></g></g><g><use xlink:href="#g27a1tLT0s" opacity="1" fill="#ffffff" fill-opacity="1"></use></g><g><use xlink:href="#jBzfiqJOf" opacity="1" fill="#ffffff" fill-opacity="1"></use></g><g><use xlink:href="#a1LVFiUju9" opacity="1" fill="#ffffff" fill-opacity="1"></use></g><g><use xlink:href="#d2aAD22fl" opacity="1" fill="#ffffff" fill-opacity="1"></use></g><g><use xlink:href="#b2M1QLLbAN" opacity="1" fill="#ffffff" fill-opacity="1"></use></g><g><use xlink:href="#bBx8rVRSI" opacity="1" fill="#ffffff" fill-opacity="1"></use></g><g><use xlink:href="#b6qjEIgZ2g" opacity="1" fill="#efcded" fill-opacity="1"></use></g><g><use xlink:href="#a5g8tshNv0" opacity="1" fill="#efcded" fill-opacity="1"></use></g><g><use xlink:href="#a2ywNIlem" opacity="1" fill="#efcded" fill-opacity="1"></use><g><use xlink:href="#a2ywNIlem" opacity="1" fill-opacity="0" stroke="#ffffff" stroke-width="0" stroke-opacity="1"></use></g></g><g><use xlink:href="#f3mgLLVdhC" opacity="1" fill="#efcded" fill-opacity="1"></use><g><use xlink:href="#f3mgLLVdhC" opacity="1" fill-opacity="0" stroke="#ffffff" stroke-width="0" stroke-opacity="1"></use></g></g></g></g></svg>